<?xml version="1.0" encoding="utf-8"?>
<!-- Generator: Adobe Illustrator 21.0.2, SVG Export Plug-In . SVG Version: 6.00 Build 0)  -->
<svg version="1.1" id="Layer_1" xmlns="http://www.w3.org/2000/svg" xmlns:xlink="http://www.w3.org/1999/xlink" x="0px" y="0px"
	 viewBox="0 0 1600 576" style="enable-background:new 0 0 1600 576;" xml:space="preserve">
<style type="text/css">
	.st0{clip-path:url(#SVGID_2_);}
	.st1{fill:#D33C41;}
	.st2{clip-path:url(#SVGID_4_);}
	.st3{clip-path:url(#SVGID_6_);}
	.st4{clip-path:url(#SVGID_8_);}
	.st5{clip-path:url(#SVGID_10_);}
	.st6{clip-path:url(#SVGID_12_);}
	.st7{clip-path:url(#SVGID_14_);}
	.st8{clip-path:url(#SVGID_16_);}
	.st9{clip-path:url(#SVGID_18_);}
	.st10{clip-path:url(#SVGID_20_);}
	.st11{clip-path:url(#SVGID_22_);}
	.st12{clip-path:url(#SVGID_24_);}
	.st13{clip-path:url(#SVGID_26_);}
	.st14{clip-path:url(#SVGID_28_);}
	.st15{clip-path:url(#SVGID_30_);}
	.st16{clip-path:url(#SVGID_32_);}
	.st17{clip-path:url(#SVGID_34_);}
</style>
<title>Artboard 1</title>
<g>
	<defs>
		<polygon id="SVGID_1_" points="1198.6,456.1 1198.6,435.8 1227.3,435.8 1227.3,427 1198.6,427 1198.6,408.7 1236.4,408.7 
			1236.4,399.9 1187.9,399.9 1187.9,464.9 1237.6,464.9 1237.6,456.1 		"/>
	</defs>
	<clipPath id="SVGID_2_">
		<use xlink:href="#SVGID_1_"  style="overflow:visible;"/>
	</clipPath>
	<g class="st0">
		<rect x="1177.9" y="389.9" class="st1" width="69.7" height="85"/>
	</g>
</g>
<g>
	<defs>
		<polygon id="SVGID_3_" points="1019.2,464.9 1029.9,464.9 1029.9,438.4 1063.6,438.4 1063.6,429.4 1029.9,429.4 1029.9,408.9 
			1067.3,408.9 1067.3,399.9 1019.2,399.9 		"/>
	</defs>
	<clipPath id="SVGID_4_">
		<use xlink:href="#SVGID_3_"  style="overflow:visible;"/>
	</clipPath>
	<g class="st2">
		<rect x="1009.2" y="389.9" class="st1" width="68.2" height="85"/>
	</g>
</g>
<g>
	<defs>
		<polygon id="SVGID_5_" points="934.8,464.9 945.5,464.9 945.5,438.4 979.3,438.4 979.3,429.4 945.5,429.4 945.5,408.9 983,408.9 
			983,399.9 934.8,399.9 		"/>
	</defs>
	<clipPath id="SVGID_6_">
		<use xlink:href="#SVGID_5_"  style="overflow:visible;"/>
	</clipPath>
	<g class="st3">
		<rect x="924.8" y="389.9" class="st1" width="68.2" height="85"/>
	</g>
</g>
<g>
	<defs>
		<path id="SVGID_7_" d="M868.9,457.7c-12.3,0-18.6-8.9-18.6-25.3s6.3-25.3,18.6-25.3s18.5,8.9,18.5,25.3S881.2,457.7,868.9,457.7z
			 M868.9,398.7c-18.3,0-29.4,11.6-29.4,33.7s11.1,33.7,29.4,33.7s29.4-11.6,29.4-33.7S887.2,398.7,868.9,398.7z"/>
	</defs>
	<clipPath id="SVGID_8_">
		<use xlink:href="#SVGID_7_"  style="overflow:visible;"/>
	</clipPath>
	<g class="st4">
		<rect x="829.5" y="388.7" class="st1" width="78.8" height="87.5"/>
	</g>
</g>
<g>
	<defs>
		<polygon id="SVGID_9_" points="1113.5,435.8 1142.1,435.8 1142.1,427 1113.5,427 1113.5,408.7 1151.3,408.7 1151.3,399.9 
			1102.7,399.9 1102.7,464.9 1152.5,464.9 1152.5,456.1 1113.5,456.1 		"/>
	</defs>
	<clipPath id="SVGID_10_">
		<use xlink:href="#SVGID_9_"  style="overflow:visible;"/>
	</clipPath>
	<g class="st5">
		<rect x="1092.7" y="389.9" class="st1" width="69.7" height="85"/>
	</g>
</g>
<g>
	<defs>
		<path id="SVGID_11_" d="M782.4,407.5c8.8,0,14.7,4.7,15.5,12.2h10.5v-0.1c0-11.8-10.7-20.8-26-20.8c-19.3,0-30.6,12.1-30.6,34
			s11.3,33.5,30.6,33.5c15.3,0,26-8.4,26-20.5v-0.5H798c-0.5,7.6-6.5,12.2-15.6,12.2c-12.6,0-19.9-8.6-19.9-24.7
			S769.8,407.5,782.4,407.5"/>
	</defs>
	<clipPath id="SVGID_12_">
		<use xlink:href="#SVGID_11_"  style="overflow:visible;"/>
	</clipPath>
	<g class="st6">
		<rect x="741.8" y="388.7" class="st1" width="76.6" height="87.5"/>
	</g>
</g>
<g>
	<defs>
		<polygon id="SVGID_13_" points="1406.9,140.5 1406.9,238.2 1366.2,140.5 1365.7,140.5 1325,140.5 1324.4,140.5 1324.4,315 
			1365.7,315 1365.7,227.7 1406.3,315 1406.9,315 1447.6,315 1448.1,315 1448.1,140.5 		"/>
	</defs>
	<clipPath id="SVGID_14_">
		<use xlink:href="#SVGID_13_"  style="overflow:visible;"/>
	</clipPath>
	<g class="st7">
		<rect x="1314.4" y="130.5" class="st1" width="143.7" height="194.5"/>
	</g>
</g>
<g>
	<defs>
		<polygon id="SVGID_15_" points="1179.2,315 1283.9,315 1283.9,273.7 1220.4,273.7 1220.4,247 1260.4,247 1260.4,208.4 
			1220.4,208.4 1220.4,181.7 1283.9,181.7 1283.9,140.5 1179.2,140.5 		"/>
	</defs>
	<clipPath id="SVGID_16_">
		<use xlink:href="#SVGID_15_"  style="overflow:visible;"/>
	</clipPath>
	<g class="st8">
		<rect x="1169.2" y="130.5" class="st1" width="124.7" height="194.5"/>
	</g>
</g>
<g>
	<defs>
		<path id="SVGID_17_" d="M893,273.7v-92c25.4,0,46,20.6,46,46S918.4,273.7,893,273.7 M893,140.5h-41.2V315H893
			c50.4,0,87.3-39.1,87.3-87.3S943.4,140.5,893,140.5"/>
	</defs>
	<clipPath id="SVGID_18_">
		<use xlink:href="#SVGID_17_"  style="overflow:visible;"/>
	</clipPath>
	<g class="st9">
		<rect x="841.7" y="130.5" class="st1" width="148.5" height="194.5"/>
	</g>
</g>
<g>
	<defs>
		<path id="SVGID_19_" d="M1056.4,273.7v-92c25.4,0,46,20.6,46,46S1081.8,273.7,1056.4,273.7 M1056.4,140.5h-41.2V315h41.2
			c50.4,0,87.2-39.1,87.2-87.3S1106.8,140.5,1056.4,140.5"/>
	</defs>
	<clipPath id="SVGID_20_">
		<use xlink:href="#SVGID_19_"  style="overflow:visible;"/>
	</clipPath>
	<g class="st10">
		<rect x="1005.1" y="130.5" class="st1" width="148.5" height="194.5"/>
	</g>
</g>
<g>
	<defs>
		<path id="SVGID_21_" d="M770,256.8c0,11.4-9.2,20.6-20.6,20.6c-11.4,0-20.6-9.2-20.6-20.6V140.5h-41.2v116.4
			c0,34.2,27.7,61.9,61.9,61.9c34.2,0,61.9-27.7,61.9-61.9V140.5H770V256.8z"/>
	</defs>
	<clipPath id="SVGID_22_">
		<use xlink:href="#SVGID_21_"  style="overflow:visible;"/>
	</clipPath>
	<g class="st11">
		<rect x="677.5" y="130.5" class="st1" width="143.7" height="198.2"/>
	</g>
</g>
<g>
	<defs>
		<path id="SVGID_23_" d="M631.2,216.1l-36.9-26c-3.8-2.7-4.7-7.8-2-11.6c2.7-3.8,7.8-4.7,11.6-2l15.6,10.6l24-31.1
			c-3.3-3.7-7-7.1-11-10c-11.6-8.1-26.1-11.1-40-8.1c-12.2,2.8-21.3,8.3-29.2,19.3c-7.9,10.8-11.2,24.3-9.2,37.5
			c2.1,12.6,9.4,24.3,20.7,32.6l32.7,22.9c3.2,2.2,5.4,5.6,6,9.5c1.4,8-3.8,15.6-11.8,17.1c-3.9,0.7-7.9-0.2-11.1-2.5
			c-6.6-4.6-25.4-17.8-25.4-17.8l-23.8,34c0,0,16.1,12.9,25.4,17.8s20.6,10.2,32.2,10.2c31.1,0,56.3-25.2,56.2-56.3
			C655.2,243.8,646.3,226.6,631.2,216.1"/>
	</defs>
	<clipPath id="SVGID_24_">
		<use xlink:href="#SVGID_23_"  style="overflow:visible;"/>
	</clipPath>
	<g class="st12">
		<rect x="531.3" y="126.7" class="st1" width="133.9" height="201.7"/>
	</g>
</g>
<g>
	<defs>
		<path id="SVGID_25_" d="M254.1,357.6c-4.8,4.8-11.3,7.4-18.1,7.3h-14.7v-50.5H236c14.1,0.2,25.4,11.8,25.2,25.9
			C261.1,346.7,258.6,352.9,254.1,357.6L254.1,357.6z M213.4,365.3c0,20.8-16.8,37.6-37.6,37.6c-20.8,0-37.6-16.8-37.6-37.6v-77.7
			h75.2V365.3z M259.7,316.3c-6.3-6.3-14.8-9.8-23.7-9.7h-14.7v-26.8h-48.6l30.2-65.3h-40l26.6-57.4h-8.7l-30.2,65.3h40L164,279.8
			h-33.7v85.5c0,25.1,20.4,45.5,45.5,45.5c22.2,0,41.1-16,44.8-37.9H236c8.9,0.1,17.4-3.4,23.7-9.7
			C272.2,350.1,272.2,329.4,259.7,316.3L259.7,316.3z"/>
	</defs>
	<clipPath id="SVGID_26_">
		<use xlink:href="#SVGID_25_"  style="overflow:visible;"/>
	</clipPath>
	<g class="st13">
		<rect x="120.4" y="147" class="st1" width="158.8" height="273.8"/>
	</g>
</g>
<g>
	<defs>
		<rect id="SVGID_27_" x="-3" y="-230" width="1600" height="1000"/>
	</defs>
	<clipPath id="SVGID_28_">
		<use xlink:href="#SVGID_27_"  style="overflow:visible;"/>
	</clipPath>
	<g class="st14">
		<g>
			<defs>
				<rect id="SVGID_29_" x="428" y="132" width="8" height="333"/>
			</defs>
			<clipPath id="SVGID_30_">
				<use xlink:href="#SVGID_29_"  style="overflow:visible;"/>
			</clipPath>
			<g class="st15">
				<g>
					<g>
						<defs>
							<rect id="SVGID_31_" x="428.4" y="132.6" width="7.5" height="332.4"/>
						</defs>
						<clipPath id="SVGID_32_">
							<use xlink:href="#SVGID_31_"  style="overflow:visible;"/>
						</clipPath>
						<g class="st16">
							<g>
								<defs>
									<rect id="SVGID_33_" x="-3" y="-230" width="1600" height="1000"/>
								</defs>
								<clipPath id="SVGID_34_">
									<use xlink:href="#SVGID_33_"  style="overflow:visible;"/>
								</clipPath>
								<g class="st17">
									<rect x="418.4" y="122.6" class="st1" width="27.5" height="352.4"/>
								</g>
							</g>
						</g>
					</g>
				</g>
			</g>
		</g>
	</g>
</g>
</svg>
